<?xml version="1.0" encoding="utf-8"?>
<svg xmlns="http://www.w3.org/2000/svg" style="display: none;">

<symbol id="B" viewBox="0 0 200 200">
    <path fill="#ED1C24" d="M0,0v200h200V0H0z M152.16,151.485c-7.283,6.091-17.493,9.137-30.629,9.137H47.083V39.377h65.708
                            	c15.52,0,27.239,3.033,35.158,9.098c7.919,6.066,11.878,14.314,11.878,24.749c0,11.391-5.271,20.075-15.811,26.061
                            	c6.25,3.286,10.99,7.111,14.222,11.48c3.231,4.37,4.847,9.813,4.847,16.328C163.085,137.263,159.443,145.396,152.16,151.485z"/>
</symbol>

<symbol id="A" viewBox="0 0 200 200">
    <path fill="#EEA11E" d=M0,0v200h200V0H0z M121.087,160.62l-6.992-20.496H84.855l-6.992,20.496H24.153l42.11-121.243h66.344l42.111,121.243H121.087z"/>
</symbol>
<symbol id="T" viewBox="0 0 200 200">
    <path fill="#BCCD30" d="M0,0v200h200V0H0z M153.87,93.087h-27.015v67.536h-53.71V93.087H46.131V39.378H153.87V93.087z"/>
</symbol>
<symbol id="I" viewBox="0 0 200 200">
    <path  fill="#886F4B" d="M0,0v200h200V0H0z M126.623,160.43H72.991V39.185h53.632V160.43z"/>
</symbol>

</svg>